Coordinates
version=1
nRows=8
nColumns=33
inDegrees=yes

Units are S.I. units (second, meters, Newtons, ...)
Angles are in degrees.

endheader
time	ground_thorax_rot_x	ground_thorax_rot_y	ground_thorax_rot_z	ground_thorax_tx	ground_thorax_ty	ground_thorax_tz	clav_prot_r	clav_elev_r	scapula_abduction_r	scapula_elevation_r	scapula_upward_rot_r	scapula_winging_r	shoulder_elv_r	plane_of_elev_r	axial_rot_r	elbow_flexion_r	pro_sup_r	wrist_flex_r	wrist_dev_r	clav_prot_l	clav_elev_l	scapula_abduction_l	scapula_elevation_l	scapula_upward_rot_l	scapula_winging_l	shoulder_elv_l	plane_of_elev_l	axial_rot_l	elbow_flexion_l	pro_sup_l	wrist_flex_l	wrist_dev_l
      6.21000000	     36.26700765	     18.22192567	     23.01796084	   -241.73928504	    835.10898339	      5.09096634	     11.72009549	     39.04054242	     38.24069989	     45.00000000	    -34.63057580	  -1171.53561071	  -3711.49614976	    147.72395951	   -125.16321360	    735.08989735	     44.03805803	     17.70751838	      2.00724947	      8.10691980	    -45.00000000	    -36.90995234	     45.00000000	    -44.56728982	   2621.23793214	  -2802.45496000	     21.04843483	    -55.21091904	    730.74682717	      9.80296143	      4.24363747	    -19.92281333
      6.22000000	     36.34078873	     17.74071349	     22.32239270	   -244.32082229	    835.48264920	      5.22387713	     12.23363176	     38.15434019	     37.70105529	     45.00000000	    -36.26807793	  -1171.35912140	  -3711.16275704	    146.57799789	   -126.47101428	    735.41473686	     47.78038320	     17.10736880	      1.54290115	      8.65119020	    -45.00000000	    -37.10414776	     45.00000000	    -45.00000000	   2621.39949597	  -2802.57535707	     21.35489121	    -53.73028451	    730.85471420	     10.35359654	      4.38698862	    -19.90702707
      6.23000000	     36.44694645	     17.62120239	     22.15852706	   -246.84826313	    835.79040542	      5.36389203	     11.95911853	     38.48838013	     37.44139378	     45.00000000	    -35.75466632	  -1171.51548463	  -3711.24818390	    146.59573674	   -125.24088632	    735.53971364	     50.16444252	     16.90708052	      1.47978646	      8.37039206	    -45.00000000	    -36.72972179	     45.00000000	    -45.00000000	   2621.55188245	  -2802.41762048	     21.25616515	    -55.28823636	    730.80607167	     10.99502999	      3.89891961	    -19.78168681
      6.24000000	     36.55051105	     17.43411588	     21.81261824	   -249.32408940	    836.03520477	      5.51073595	     11.78407576	     38.68955442	     37.29332771	     45.00000000	    -35.47928443	  -1171.54379046	  -3711.27007996	    146.84119773	   -124.85356629	    735.87610320	     52.37205682	     16.73187116	      1.38339415	      8.30035934	    -45.00000000	    -36.60773240	     45.00000000	    -45.00000000	   2621.65404144	  -2802.33581009	     21.15838329	    -55.87421036	    730.96469802	     11.59061211	      3.76044542	    -19.78008322
      6.25000000	     36.58157143	     17.28613424	     21.76470707	   -251.74479061	    836.21779859	      5.66451070	     11.56872571	     38.95198344	     37.37925457	     45.00000000	    -35.29261947	  -1171.47857463	  -3711.28653010	    147.35039797	   -124.68570898	    736.12308867	     54.47036174	     16.52772840	      1.29970915	      8.24748062	    -45.00000000	    -36.51704533	     45.00000000	    -45.00000000	   2621.80292208	  -2802.32179663	     20.89111958	    -56.34146843	    730.88661295	     12.25215271	      3.65521165	    -19.72586215
      6.26000000	     36.52886245	     17.08064577	     21.44603757	   -254.11129815	    836.34117543	      5.82557241	     12.28320616	     37.88355279	     37.04229740	     45.00000000	    -38.33379735	  -1170.86972489	  -3710.52301681	    146.37402828	   -128.50512380	    736.72986092	     62.33305363	     15.83232638	      1.16205584	      8.84286493	    -45.00000000	    -36.70142241	     45.00000000	    -45.00000000	   2622.07178065	  -2802.42541443	     21.02329324	    -55.61213220	    730.89646751	     14.62608953	      3.69206305	    -19.77474721
      6.27000000	     36.70417964	     16.94303787	     21.21098025	   -256.41953838	    836.40564046	      5.99520765	     11.51777246	     38.61526107	     36.99300357	     45.00000000	    -36.06248153	  -1171.27815170	  -3711.07092600	    147.25186319	   -125.41949475	    737.06080840	     64.17553681	     15.60964659	      1.05218883	      8.24699369	    -45.00000000	    -36.31510938	     45.00000000	    -45.00000000	   2622.10886403	  -2802.32509531	     20.85028005	    -56.74328299	    731.01353201	     15.31857251	      3.06326354	    -19.55959479
      6.28000000	     36.59888133	     16.96831311	     21.25045028	   -258.66783839	    836.41620960	      6.17339502	     12.05083333	     37.86722725	     37.08183940	     45.00000000	    -37.87275410	  -1171.57939766	  -3711.22520640	    146.50585903	   -125.24527252	    737.17534986	     67.29716754	     14.79395650	      0.94096162	      8.64801756	    -45.00000000	    -36.67888754	     45.00000000	    -45.00000000	   2622.39298497	  -2802.42903970	     20.61088592	    -56.39105794	    731.01146199	     16.49571286	      2.94378630	    -19.48584857
